# xmcd CD database file
#
# Track frame offsets:
#	150
#	15000
#	28427
#	42132
#	52740
#	67875
#	87735
#	102837
#	121725
#	141397
#	155565
#	170350
#	185882
#	203365
#	213615
#	232245
#	254017
#
# Disc length: 3611 seconds
#
# Revision: 2
# Processed by: cddbd v1.5.2PL0 Copyright (c) Steve Scherf et al.
# Submitted via: CDex 1.70beta2
#
DISCID=ef0e1911
DTITLE=drumkan - STYLE OF Limited II
DYEAR=2002
DGENRE=Rock
TTITLE0=drumkan/J
TTITLE1=bus tribute/Roll It Over
TTITLE2=フーバーオーバー/フェンダー
TTITLE3=ANARQ(STYLE OF Limited II) - the band apart
TTITLE4=B-DASH/愛するPOW
TTITLE5=LONG SHOT PARTY/ROAD AHEAD
TTITLE6=コーガニズムオーケストラ/2nd life
TTITLE7=FULLTRAP/GET OVER IT
TTITLE8=BOMB FACTORY/HOLIDAY
TTITLE9=175R/Signpost of light
TTITLE10=HATE HONEY/風の無い夜
TTITLE11=NEVER GOOD ENOUGH/ODYSSEY
TTITLE12=SHAKA LABBITS/Go gril
TTITLE13=SKA SKA CLUB/laid back song
TTITLE14=SNIF/disturb
TTITLE15=UP HOLD/空ト大地ノハザマ
TTITLE16=FROM YOUTH/道
EXTD=YEAR: 2002
EXTT0=
EXTT1=
EXTT2=
EXTT3=
EXTT4=
EXTT5=
EXTT6=
EXTT7=
EXTT8=
EXTT9=
EXTT10=
EXTT11=
EXTT12=
EXTT13=
EXTT14=
EXTT15=
EXTT16=
PLAYORDER=
